{"title":"BBC Alasca Selvagem 2014 HDTV 720p Legendado PT-BR","uid":15826524,"size":3256814098,"categoryP":"video","categoryS":"hd___tv_shows","magnet":"?xt=urn:btih:b89a4f912f368a6eff9b6e3a78ca525e5e6d2eaa&amp;dn=BBC+Alasca+Selvagem+2014+HDTV+720p+Legendado+PT-BR&amp;tr=udp%3A%2F%2Ftracker.leechers-paradise.org%3A6969&amp;tr=udp%3A%2F%2Fzer0day.ch%3A1337&amp;tr=udp%3A%2F%2Fopen.demonii.com%3A1337&amp;tr=udp%3A%2F%2Ftracker.coppersurfer.tk%3A6969&amp;tr=udp%3A%2F%2Fexodus.desync.com%3A6969","seeders":0,"leechers":3,"uploader":null,"files":3,"time":1473855038,"description":"Audio: English\r\nLegendas/subtitles: Português (HARDSUBED)\r\n\r\n=========================================\r\nAs vastas cordilheiras, os oceanos que o cercam e a alta latitude se combinam para criar um dos invernos mais rigorisos do planeta. Nesta vastidão de proporções épicas, os riscos são enormes.\r\nA preparação é tudo conforme o inverno finca suas garras: o que fazer quando a terra congela, as tempestades se enfurecem e a escuridão sem fim se instala?\r\nMergulhada na beleza primitiva do Alasca, como a vida persevera até o retorno do sol?\r\n\r\nEpisódio 1: Inverno\r\nEpisódio 2: Verão\r\nEpisódio 3: Primavera\r\n\r\n=========================================\r\n\r\nVideo\r\nID                             : 1\r\nFormat                         : AVC\r\nFormat/Info                    : Advanced Video Codec\r\nFormat profile                 :   \r\nFormat settings, CABAC         : Yes\r\nFormat settings, ReFrames      : 4 frames\r\nCodec ID                       : V_MPEG4/ISO/AVC\r\nDuration                       : 50mn 24s\r\nBit rate                       : 2 499 Kbps\r\nWidth                          : 1 280 pixels\r\nHeight                         : 720 pixels\r\nDisplay aspect ratio           : 16:9\r\nFrame rate mode                : Constant\r\nFrame rate                     : 59.880 fps\r\nOriginal frame rate            : 59.940 fps\r\nColor space                    : YUV\r\nChroma subsampling             : 4:2:0\r\nBit depth                      : 8 bits\r\nScan type                      : Progressive\r\nBits/(Pixel*Frame)             : 0.045\r\nStream size                    : 882 MiB (85%)\r\n\r\n\r\nAudio\r\nID                             : 2\r\nFormat                         : AC-3\r\nFormat/Info                    : Audio Coding 3\r\nMode extension                 : CM (complete main)\r\nFormat settings, Endianness    : Big\r\nCodec ID                       : A_AC3\r\nDuration                       : 50mn 24s\r\nBit rate mode                  : Constant\r\nBit rate                       : 384 Kbps\r\nChannel(s)                     : 2 channels\r\nChannel positions              : Front: L R\r\nSampling rate                  : 48.0 KHz\r\nBit depth                      : 16 bits\r\nCompression mode               : Lossy\r\nDelay relative to video        : 29ms\r\nStream size                    : 138 MiB (13%)\r\nLanguage                       : English\r\nDefault                        : Yes\r\nForced                         : No","torrent":{"xt":"urn:btih:b89a4f912f368a6eff9b6e3a78ca525e5e6d2eaa","amp;dn":"BBC+Alasca+Selvagem+2014+HDTV+720p+Legendado+PT-BR","amp;tr":["udp%3A%2F%2Ftracker.leechers-paradise.org%3A6969","udp%3A%2F%2Fzer0day.ch%3A1337","udp%3A%2F%2Fopen.demonii.com%3A1337","udp%3A%2F%2Ftracker.coppersurfer.tk%3A6969","udp%3A%2F%2Fexodus.desync.com%3A6969"],"infoHash":"b89a4f912f368a6eff9b6e3a78ca525e5e6d2eaa","infoHashBuffer":{"type":"Buffer","data":[184,154,79,145,47,54,138,110,255,155,110,58,120,202,82,94,94,109,46,170]},"announce":[],"urlList":[]}}